<?xml version="1.0" encoding="UTF-8" standalone="no"?>
<svg
   height="144"
   viewBox="0 -960 5760 5760"
   width="144"
   fill="#0000f5"
   version="1.1"
   id="svg987"
   sodipodi:docname="logo_144x144.svg"
   inkscape:version="1.1.2 (0a00cf5339, 2022-02-04)"
   xmlns:inkscape="http://www.inkscape.org/namespaces/inkscape"
   xmlns:sodipodi="http://sodipodi.sourceforge.net/DTD/sodipodi-0.dtd"
   xmlns="http://www.w3.org/2000/svg"
   xmlns:svg="http://www.w3.org/2000/svg">
  <defs
     id="defs991" />
  <sodipodi:namedview
     id="namedview989"
     pagecolor="#ffffff"
     bordercolor="#666666"
     borderopacity="1.0"
     inkscape:pageshadow="2"
     inkscape:pageopacity="0.0"
     inkscape:pagecheckerboard="0"
     showgrid="false"
     inkscape:zoom="2.0520833"
     inkscape:cx="79.675127"
     inkscape:cy="-13.64467"
     inkscape:window-width="1920"
     inkscape:window-height="1003"
     inkscape:window-x="0"
     inkscape:window-y="40"
     inkscape:window-maximized="1"
     inkscape:current-layer="svg987" />
  <path
     d="m 1243.6364,2829.0909 h 745.4545 Q 1911.8182,2751.8181 1845.9091,2660.909 1780,2570 1730,2465.4545 h -486.3636 z m 1636.3636,0 q 377.2727,0 643.1818,-265.9091 265.9091,-265.9091 265.9091,-643.1818 0,-377.2728 -265.9091,-643.1819 Q 3257.2727,1010.909 2880,1010.909 q -377.2727,0 -643.1818,265.9091 -265.9091,265.9091 -265.9091,643.1819 0,377.2727 265.9091,643.1818 265.9091,265.9091 643.1818,265.9091 z M 4030,1374.5454 h 486.3636 V 1010.909 h -745.4545 q 77.2727,77.2729 143.1818,168.1819 Q 3980,1270 4030,1374.5454 Z m -3150,2000 V 1920 h 363.6364 v 181.8181 h 377.2727 q -9.0909,-45.4545 -11.3636,-88.6363 -2.2728,-43.1818 -2.2728,-93.1818 0,-531.8182 370.4546,-902.2728 Q 2348.1818,647.27275 2880,647.27275 H 4516.3636 V 465.45455 H 4880 V 1920 h -363.6364 v -181.8182 h -377.2727 q 9.0909,45.4545 11.3636,88.6363 2.2728,43.1819 2.2728,93.1819 0,531.8181 -370.4546,902.2727 Q 3411.8182,3192.7273 2880,3192.7273 H 1243.6364 v 181.8181 z m 363.6364,-545.4545 V 2465.4545 Z M 4516.3636,1374.5454 V 1010.909 Z M 2880,1920 Z m 0,545.4545 q -150,0 -256.8182,-106.8182 -106.8182,-106.8182 -106.8182,-256.8182 0,-104.5454 43.1819,-206.8181 43.1818,-102.2728 165.909,-293.1819 L 2880,1374.5454 l 154.5455,227.2727 q 122.7272,190.9091 165.909,293.1819 43.1819,102.2727 43.1819,206.8181 0,150 -106.8182,256.8182 Q 3030,2465.4545 2880,2465.4545 Z"
     id="path985"
     style="stroke-width:4.54545" />
</svg>
