<?xml version="1.0" encoding="UTF-8" standalone="no"?>
<svg
   height="24px"
   viewBox="0 -960 960 960"
   width="24px"
   fill="#013048"
   version="1.1"
   id="svg4"
   sodipodi:docname="local_convenience_store_24dp_013048_FILL0_wght400_GRAD0_opsz24.svg"
   inkscape:version="1.1.2 (0a00cf5339, 2022-02-04)"
   xmlns:inkscape="http://www.inkscape.org/namespaces/inkscape"
   xmlns:sodipodi="http://sodipodi.sourceforge.net/DTD/sodipodi-0.dtd"
   xmlns="http://www.w3.org/2000/svg"
   xmlns:svg="http://www.w3.org/2000/svg">
  <defs
     id="defs8" />
  <sodipodi:namedview
     id="namedview6"
     pagecolor="#ffffff"
     bordercolor="#666666"
     borderopacity="1.0"
     inkscape:pageshadow="2"
     inkscape:pageopacity="0.0"
     inkscape:pagecheckerboard="0"
     showgrid="false"
     inkscape:zoom="29.583333"
     inkscape:cx="11.983099"
     inkscape:cy="12"
     inkscape:window-width="1920"
     inkscape:window-height="1003"
     inkscape:window-x="0"
     inkscape:window-y="40"
     inkscape:window-maximized="1"
     inkscape:current-layer="svg4" />
  <path
     d="M321-240h120v-40h-80v-40h80v-120H321v40h80v40h-80v120Zm280 0h40v-200h-40v80h-40v-80h-40v120h80v80Zm240-278v318q0 33-23.5 56.5T761-120H201q-33 0-56.5-23.5T121-200v-318q-23-21-35.5-54t-.5-72l42-136q8-26 28.5-43t47.5-17h556q27 0 47 16.5t29 43.5l42 136q12 39-.5 71T841-518Zm-272-42q27 0 41-18.5t11-41.5l-22-140h-78v148q0 21 14 36.5t34 15.5Zm-180 0q23 0 37.5-15.5T441-612v-148h-78l-22 140q-4 24 10.5 42t37.5 18Zm-178 0q18 0 31.5-13t16.5-33l22-154h-78l-40 134q-6 20 6.5 43t41.5 23Zm540 0q29 0 42-23t6-43l-42-134h-76l22 154q3 20 16.5 33t31.5 13ZM201-200h560v-282q-5 2-6.5 2H751q-27 0-47.5-9T663-518q-18 18-41 28t-49 10q-27 0-50.5-10T481-518q-17 18-39.5 28T393-480q-29 0-52.5-10T299-518q-21 21-41.5 29.5T211-480h-4.5q-2.5 0-5.5-2v282Zm560 0H201h560Z"
     id="path2"
     style="fill:#f87019;fill-opacity:1" />
</svg>
